<svg xmlns="http://www.w3.org/2000/svg" viewBox="0 0 64 64" role="img" aria-labelledby="title desc">
  <title id="title">Sector Performance Dashboard icon</title>
  <desc id="desc">A compact market dashboard mark with sector tiles and a rising performance line.</desc>
  <rect width="64" height="64" rx="12" fill="#1e2521" />
  <rect x="10" y="10" width="44" height="44" rx="7" fill="#f4f7f5" />
  <g fill="#d4dcd7">
    <rect x="16" y="16" width="8" height="8" rx="2" />
    <rect x="28" y="16" width="8" height="8" rx="2" />
    <rect x="40" y="16" width="8" height="8" rx="2" />
    <rect x="16" y="28" width="8" height="8" rx="2" />
    <rect x="28" y="28" width="8" height="8" rx="2" />
    <rect x="40" y="28" width="8" height="8" rx="2" />
    <rect x="16" y="40" width="8" height="8" rx="2" />
    <rect x="28" y="40" width="8" height="8" rx="2" />
    <rect x="40" y="40" width="8" height="8" rx="2" />
  </g>
  <rect x="16" y="16" width="8" height="8" rx="2" fill="#3f8d54" />
  <rect x="28" y="16" width="8" height="8" rx="2" fill="#a0a943" />
  <rect x="40" y="28" width="8" height="8" rx="2" fill="#db7a3e" />
  <path
    d="M16 43.5 25 35l8 3.5L48 22"
    fill="none"
    stroke="#1e2521"
    stroke-width="5"
    stroke-linecap="round"
    stroke-linejoin="round"
  />
  <path
    d="M16 43.5 25 35l8 3.5L48 22"
    fill="none"
    stroke="#ffffff"
    stroke-width="2.5"
    stroke-linecap="round"
    stroke-linejoin="round"
  />
  <path d="M42 22h6v6" fill="none" stroke="#ffffff" stroke-width="2.5" stroke-linecap="round" stroke-linejoin="round" />
</svg>
